<svg width="44" height="41" viewBox="0 0 44 41" fill="none" xmlns="http://www.w3.org/2000/svg">
<path d="M42.3755 23.4809C42.5691 26.7804 41.0421 29.9521 38.3109 31.8892L39.9668 35.061C40.4615 36.0189 40.526 37.1471 40.0959 38.1476C39.6873 39.148 38.8485 39.9357 37.8162 40.2762L36.1173 40.8084C35.7517 40.9361 35.3431 41 34.9559 41C33.8591 41 32.8269 40.5104 32.1172 39.6376L27.5579 34.3159C25.6439 33.9966 23.8374 33.1877 22.3104 31.9744C21.2352 32.2937 20.1599 32.464 19.0846 32.464C17.192 32.464 15.2995 31.8892 13.7081 30.7823C12.5683 31.1229 11.4069 31.2719 10.2241 31.2506C8.52513 31.2719 6.84767 30.9313 5.27773 30.2927C2.20238 28.9303 0.159317 25.9502 0.0517876 22.6081C-0.12026 21.0755 0.137811 19.5215 0.804496 18.1166C0.180823 16.5201 0.116305 14.7745 0.653954 13.1567C1.44967 11.1345 2.95509 9.45282 4.82611 8.38848C6.07345 4.79099 9.57892 2.38557 13.4285 2.64102C16.8694 -0.552018 22.1384 -0.892608 25.9665 1.8534C26.8697 1.61925 27.816 1.49152 28.7622 1.49152C31.687 1.42766 34.4613 2.70488 36.2893 4.98257C40.6765 6.11078 43.8164 9.98499 43.9884 14.4978C44.096 16.8607 43.4508 19.1809 42.1389 21.1606C42.2895 21.9269 42.3755 22.6933 42.3755 23.4809ZM31.6225 20.4794C32.8484 20.6284 33.8161 21.5438 33.8161 22.7571C33.8161 23.3217 33.5896 23.8631 33.1862 24.2623C32.7829 24.6616 32.2359 24.8858 31.6655 24.8858H30.3107C29.6225 26.8016 28.4181 28.4833 26.8267 29.7605C27.3643 29.9521 27.9235 30.0585 28.4827 30.2075C39.5152 30.0585 38.2248 23.3957 38.2248 23.2893C38.0958 20.2453 35.5151 17.8611 32.4398 17.9889C31.8694 17.9889 31.3224 17.7646 30.9191 17.3654C30.5157 16.9662 30.2892 16.4247 30.2892 15.8602C30.2892 15.2956 30.5157 14.7542 30.9191 14.355C31.3224 13.9558 31.8694 13.7315 32.4398 13.7315C35.085 13.7953 37.6227 14.7745 39.6012 16.4988C39.7088 15.8815 39.7733 15.2429 39.7733 14.6043C39.6442 11.9647 38.4399 9.66569 33.6011 9.21867C30.9128 2.91775 24.1385 6.4088 24.1385 8.36719C24.0739 8.85679 24.5901 9.89985 24.6761 9.96371C25.2465 9.96371 25.7935 10.188 26.1968 10.5872C26.6001 10.9864 26.8267 11.5278 26.8267 12.0924C26.8267 13.2632 25.8589 14.2211 24.6761 14.2211C23.5363 14.1785 22.461 13.7528 21.6008 13.029C20.5685 13.6889 19.3856 14.0934 18.1598 14.2211C16.934 14.3275 15.9232 13.476 15.8587 12.3053C15.6866 11.1132 16.5684 10.0701 17.7512 9.96371C18.0953 9.92113 19.7727 9.66569 19.7727 8.32462C19.7727 6.91968 20.3104 5.57861 21.2352 4.51426C19.2566 3.98209 17.1275 4.68456 14.9769 7.26027C11.0198 6.64295 9.40688 7.17512 8.22405 11.3261C6.18098 12.3266 5.10569 13.029 4.63256 15.1577C6.9552 14.6894 9.34236 14.881 11.5575 15.6899C12.6328 16.0943 13.2349 17.2864 12.8263 18.4359C12.4177 19.5428 11.1704 20.0963 10.0521 19.6918C8.48212 19.0106 6.71863 18.9681 5.10569 19.5641C4.4175 20.1388 4.4175 21.3309 4.4175 22.2675C4.4175 23.8428 5.21322 25.3116 6.56809 26.163C7.70791 26.7378 8.97676 27.0358 10.2456 27.0145C9.92302 26.4611 9.64344 25.8863 9.40688 25.2903C8.99826 24.1408 9.62194 22.8849 10.7833 22.4804C11.9446 22.076 13.2134 22.6933 13.622 23.8428C14.4823 26.2695 16.6759 27.9298 19.2566 28.2066C22.2029 28.0576 24.8266 26.3333 26.117 23.6725C26.6116 20.7349 28.9988 20.4794 31.6225 20.4794ZM35.9237 36.3807L34.5903 33.6134L33.0634 33.954L35.214 36.6149L35.9237 36.3807ZM25.9234 18.0527C25.9665 16.9245 25.1062 15.9666 23.9664 15.8602C22.4395 15.775 20.9556 16.2859 19.8158 17.2864C18.5899 18.521 17.9447 20.224 18.0093 21.9482C18.0093 22.5128 18.2358 23.0542 18.6392 23.4534C19.0425 23.8526 19.5895 24.0769 20.1599 24.0769C21.3857 24.0769 22.3104 23.119 22.3104 21.9482C22.3104 21.3735 22.461 20.7987 22.8051 20.3304C23.0632 20.1176 23.3857 20.0111 23.7298 20.0111C24.9127 20.075 25.9234 19.2022 25.9234 18.0527Z" fill="#382D21"/>
</svg>
