<svg width="44" height="44" viewBox="0 0 44 44" fill="none" xmlns="http://www.w3.org/2000/svg">
<path d="M39.1111 0H4.88889C3.59227 0 2.34877 0.515078 1.43192 1.43192C0.515078 2.34877 0 3.59227 0 4.88889V39.1111C0 40.4077 0.515078 41.6512 1.43192 42.5681C2.34877 43.4849 3.59227 44 4.88889 44H39.1111C40.4077 44 41.6512 43.4849 42.5681 42.5681C43.4849 41.6512 44 40.4077 44 39.1111V4.88889C44 3.59227 43.4849 2.34877 42.5681 1.43192C41.6512 0.515078 40.4077 0 39.1111 0ZM4.88889 39.1111V34.2222H12.54C13.0752 36.1201 14.1544 37.8196 15.6444 39.1111M39.1111 39.1111H28.3556C29.8456 37.8196 30.9248 36.1201 31.46 34.2222H39.1111M39.1111 29.3333H26.8889V31.7778C26.8889 33.0744 26.3738 34.3179 25.457 35.2347C24.5401 36.1516 23.2966 36.6667 22 36.6667C20.7034 36.6667 19.4599 36.1516 18.543 35.2347C17.6262 34.3179 17.1111 33.0744 17.1111 31.7778V29.3333H4.88889V4.88889H39.1111V29.3333Z" fill="#382D21"/>
</svg>
